<svg width="90" height="90" xmlns="http://www.w3.org/2000/svg" version="1.1" xml:space="preserve">

 <g>
  <title>Layer 1</title>
  <g id="svg_2">
   <path d="m19.20422,31.04824c-0.48331,0.24088 -0.81136,0.72831 -0.81136,1.23044l0,25.44561c0,0.53549 0.33494,1.02517 0.8652,1.26436l25.04202,11.30916c0.43197,0.19565 0.9685,0.19565 1.39985,0l25.04202,-11.30916c0.53026,-0.23919 0.8652,-0.72887 0.8652,-1.26436l0,-25.44561c0,-0.5157 -0.35497,-1.03366 -0.8652,-1.26436l-25.04202,-11.30916c-0.44011,-0.19961 -0.95974,-0.19961 -1.39985,0l-25.04202,11.30916c-0.02003,0.00905 -0.03443,0.02375 -0.05384,0.03393zm11.70965,30.04335l-3.13025,-1.41365l0,-22.2847l3.13025,1.41365l0,22.2847zm6.2605,2.82729l-3.13025,-1.41365l0,-22.2847l3.13025,1.41365l0,22.2847zm6.2605,2.82729l-3.13025,-1.41365l0,-22.2847l3.13025,1.41365l0,22.2847zm25.04202,-9.89552l-21.91176,9.89552l0,-3.20049l21.91176,-9.89552l0,3.20049zm0,-6.3614l-21.91176,9.89552l0,-3.20049l21.91176,-9.89552l0,3.20049zm0,-6.3614l-21.91176,9.89552l0,-3.20049l21.91176,-9.89552l0,3.20049zm0,-6.3614l-21.91176,9.89552l0,-3.20049l21.91176,-9.89552l0,3.20049zm-23.47689,-15.21648l21.54239,9.72871l-2.76088,1.24683l-21.54239,-9.72871l2.76088,-1.24683zm-6.2605,2.82729l21.54239,9.72871l-2.76088,1.24683l-21.54239,-9.72871l2.76088,-1.24683zm-6.2605,2.82729l21.54239,9.72871l-2.76088,1.24683l-21.54239,-9.72871l2.76088,-1.24683zm-6.2605,2.82729l21.54239,9.72871l-2.76088,1.24683l-21.54239,-9.72871l2.76088,-1.24683zm-4.69538,3.53411l3.13025,1.41365l0,22.2847l-3.13025,-1.41365l0,-22.2847z" fill="#FFFFFF" id="svg_1"/>
  </g>
 </g>
</svg>