<svg width="18" height="18" viewBox="0 0 18 18" fill="none" xmlns="http://www.w3.org/2000/svg">
<path d="M9.00001 16.5C9.9851 16.5012 10.9607 16.3078 11.8708 15.9308C12.7809 15.5538 13.6076 15.0007 14.3033 14.3033C15.0007 13.6076 15.5538 12.7809 15.9308 11.8708C16.3078 10.9607 16.5012 9.9851 16.5 9.00001C16.5012 8.01491 16.3078 7.03929 15.9308 6.12919C15.5538 5.21909 15.0007 4.39245 14.3033 3.69676C13.6076 2.99932 12.7809 2.44621 11.8708 2.06922C10.9607 1.69223 9.9851 1.49879 9.00001 1.50001C8.01491 1.49879 7.03929 1.69223 6.12919 2.06922C5.21909 2.44621 4.39245 2.99932 3.69676 3.69676C2.99932 4.39245 2.44621 5.21909 2.06922 6.12919C1.69223 7.03929 1.49879 8.01491 1.50001 9.00001C1.49879 9.9851 1.69223 10.9607 2.06922 11.8708C2.44621 12.7809 2.99932 13.6076 3.69676 14.3033C4.39245 15.0007 5.21909 15.5538 6.12919 15.9308C7.03929 16.3078 8.01491 16.5012 9.00001 16.5Z" stroke="#E20917" stroke-linejoin="round"/>
<path fill-rule="evenodd" clip-rule="evenodd" d="M9 13.875C9.24864 13.875 9.4871 13.7762 9.66291 13.6004C9.83873 13.4246 9.9375 13.1861 9.9375 12.9375C9.9375 12.6889 9.83873 12.4504 9.66291 12.2746C9.4871 12.0988 9.24864 12 9 12C8.75136 12 8.5129 12.0988 8.33709 12.2746C8.16127 12.4504 8.0625 12.6889 8.0625 12.9375C8.0625 13.1861 8.16127 13.4246 8.33709 13.6004C8.5129 13.7762 8.75136 13.875 9 13.875Z" fill="#E20917"/>
<path d="M9 4.5V10.5" stroke="#E20917" stroke-linecap="round" stroke-linejoin="round"/>
</svg>
